<?xml version="1.0" encoding="iso-8859-1"?>
<!-- Uploaded to: SVG Repo, www.svgrepo.com, Generator: SVG Repo Mixer Tools -->
<svg height="800px" width="800px" version="1.1" id="Layer_1" xmlns="http://www.w3.org/2000/svg" xmlns:xlink="http://www.w3.org/1999/xlink" 
	 viewBox="0 0 503.322 503.322" xml:space="preserve">
<g>
	<path style="fill:#BC9519;" d="M194.291,148.359c-2.143,9.52-3.376,19.378-3.376,29.54c0,4.634,0.243,9.207,0.694,13.711
		c6.439,63.245,56.858,113.673,120.103,120.103c0.46,4.513,0.694,9.086,0.694,13.711c0,10.162-1.224,20.029-3.367,29.548
		c-85.157-7.793-152.897-75.533-160.681-160.681c-0.503-5.406-0.833-10.856-0.833-16.393c0-9.537,0.972-18.831,2.412-27.96
		C163.38,65.007,236.718,0,325.424,0c98.261,0,177.898,79.646,177.898,177.898c0,88.715-64.998,162.044-149.929,175.495
		c1.441-9.138,2.404-18.423,2.404-27.969c0-5.528-0.33-10.978-0.824-16.384c59.991-13.52,104.96-67.133,104.96-131.141
		c0-74.171-60.338-134.508-134.508-134.508C261.415,43.39,207.811,88.368,194.291,148.359"/>
	<path style="fill:#F0C419;" d="M353.393,353.393c-13.451,84.931-86.78,149.929-175.495,149.929C79.646,503.322,0,423.684,0,325.424
		c0-88.706,65.007-162.044,149.938-175.486c-1.441,9.129-2.412,18.423-2.412,27.96c0,5.537,0.33,10.986,0.833,16.393
		C88.368,207.811,43.39,261.415,43.39,325.424c0,74.171,60.338,134.508,134.508,134.508c64.009,0,117.621-44.969,131.141-104.96
		c2.143-9.52,3.367-19.387,3.367-29.548c0-4.625-0.234-9.199-0.694-13.711c-6.43-63.245-56.849-113.664-120.103-120.103
		c-0.451-4.504-0.694-9.077-0.694-13.711c0-10.162,1.232-20.02,3.376-29.54c85.157,7.793,152.888,75.524,160.681,160.681
		c0.495,5.406,0.824,10.856,0.824,16.384C355.797,334.97,354.833,344.255,353.393,353.393"/>
</g>
</svg>